inDegrees=yes
name=ik_Shooting_orientations
DataType=double
version=3
OpenSimVersion=4.3-2021-08-27-4bc7ad9
endheader
time	pelvis_tilt	pelvis_list	pelvis_rotation	pelvis_tx	pelvis_ty	pelvis_tz	hip_flexion_r	hip_adduction_r	hip_rotation_r	knee_angle_r	knee_angle_r_beta	ankle_angle_r	subtalar_angle_r	mtp_angle_r	hip_flexion_l	hip_adduction_l	hip_rotation_l	knee_angle_l	knee_angle_l_beta	ankle_angle_l	subtalar_angle_l	mtp_angle_l	lumbar_extension	lumbar_bending	lumbar_rotation	arm_flex_r	arm_add_r	arm_rot_r	elbow_flex_r	pro_sup_r	wrist_flex_r	wrist_dev_r	arm_flex_l	arm_add_l	arm_rot_l	elbow_flex_l	pro_sup_l	wrist_flex_l	wrist_dev_l
13.06999999999977	-3.741544647820363	2.876605921799472	-107.3143514678621	0	0.9399999999999999	0	40.6362923052797	-10.08415015457903	0	57.66027880605105	1.006361712783496	-5.022546866363787	0	0	40.6362923052797	-10.08415015457903	0	57.66027880605105	1.006361712783496	-5.022546866363787	0	0	-4.64818056715242	-7.744283940076559	6.801013488742542	32.06160399235385	23.1073224948989	4.154877459800492	74.91557915535421	45.43330018814719	0	0	0	-10.36182872915045	0	74.91557915535421	45.43330018814719	0	0
13.07999999999977	-3.734765028326903	2.874744207914446	-107.3212822071378	0	0.9399999999999999	0	40.63664634168767	-10.08417044635645	0	57.66044777966029	1.006364661929326	-5.022559785373316	0	0	40.63664634168767	-10.08417044635645	0	57.66044777966029	1.006364661929326	-5.022559785373316	0	0	-4.627063265196673	-7.766130601445068	6.798778054521947	32.12754048490899	23.16092703419977	4.0818734032802	74.91558605327793	45.43333316147205	0	0	0	-10.36209767593303	0	74.91558605327793	45.43333316147205	0	0
13.08999999999977	-3.733852835226881	2.882022714874634	-107.3174306512988	0	0.9399999999999999	0	40.63731259288892	-10.08412586372866	0	57.66072843106171	1.006369560220331	-5.022544211764419	0	0	40.63731259288892	-10.08412586372866	0	57.66072843106171	1.006369560220331	-5.022544211764419	0	0	-4.60508662340833	-7.764453751715499	6.781262240013078	32.21363440754335	23.23289945747923	3.973648364195483	74.91559892644018	45.43315145059826	0	0	0	-10.36246040611215	0	74.91559892644018	45.43315145059826	0	0
13.09999999999977	-3.724639388924202	2.87959280971796	-107.3188072155889	0	0.9399999999999999	0	40.63618249795329	-10.08426109292803	0	57.66028425831586	1.006361807943468	-5.022599182131337	0	0	40.63618249795329	-10.08426109292803	0	57.66028425831586	1.006361807943468	-5.022599182131337	0	0	-4.616359563094704	-7.772307374326758	6.766502375666245	32.29203745481523	23.27376856275604	3.864903828344068	74.91557716970992	45.43363609799111	0	0	0	-10.36195247593583	0	74.91557716970992	45.43363609799111	0	0
13.10999999999976	-3.722475339883612	2.891122341213283	-107.3187868467278	0	0.9399999999999999	0	40.63969340774373	-10.084048147504	0	57.66176149943402	1.006387590664826	-5.022527895298705	0	0	40.63969340774373	-10.084048147504	0	57.66176149943402	1.006387590664826	-5.022527895298705	0	0	-4.627612522610113	-7.770675850070031	6.767136330810258	32.41267393678122	23.31148966484033	3.815283374706233	74.91564503472929	45.43274221431469	0	0	0	-10.36389517534386	0	74.91564503472929	45.43274221431469	0	0
13.11999999999976	-3.723658747930181	2.888164347185846	-107.3068036809535	0	0.9399999999999999	0	40.63911150304943	-10.08415490635845	0	57.66155184505517	1.006383931505624	-5.022574067994766	0	0	40.63911150304943	-10.08415490635845	0	57.66155184505517	1.006383931505624	-5.022574067994766	0	0	-4.65221334762846	-7.767118859521439	6.771238895003807	32.5084829921544	23.34784961552812	3.65605260826556	74.91563388002301	45.43310129939346	0	0	0	-10.36369922213096	0	74.91563388002301	45.43310129939346	0	0
13.12999999999976	-3.723430301935649	2.896771023392592	-107.3079486653389	0	0.9399999999999999	0	40.64172037415237	-10.08401671095891	0	57.66266289807152	1.006403323038923	-5.022530695452089	0	0	40.64172037415237	-10.08401671095891	0	57.66266289807152	1.006403323038923	-5.022530695452089	0	0	-4.669310864519297	-7.766258025010238	6.775554701776914	32.62085068507625	23.35799514073877	3.595138105256438	74.91568433479542	45.43249647097526	0	0	0	-10.36517983582917	0	74.91568433479542	45.43249647097526	0	0
13.13999999999976	-3.735121616181172	2.900988572858452	-107.3027093519963	0	0.9399999999999999	0	40.6422416841701	-10.08398198398728	0	57.66288315602815	1.00640716726547	-5.022518568319876	0	0	40.6422416841701	-10.08398198398728	0	57.66288315602815	1.00640716726547	-5.022518568319876	0	0	-4.678924190829177	-7.741894411538766	6.783021585873305	32.70942891946054	23.41927172263332	3.454993208839117	74.91569440772913	45.43235484077412	0	0	0	-10.36546436920968	0	74.91569440772913	45.43235484077412	0	0
13.14999999999976	-3.721658210486397	2.890733412090051	-107.3059815300035	0	0.9399999999999999	0	40.64503278826932	-10.08386561513157	0	57.66409162906751	1.006428259098929	-5.022487155134748	0	0	40.64503278826932	-10.08386561513157	0	57.66409162906751	1.006428259098929	-5.022487155134748	0	0	-4.696775927557752	-7.736760534557464	6.813780307382515	32.82157045412042	23.38057599649236	3.337636810024292	74.91574842839402	45.43180140627099	0	0	0	-10.36710648313518	0	74.91574842839402	45.43180140627099	0	0
13.15999999999976	-3.732958710218706	2.886530293046551	-107.3007739628386	0	0.9399999999999999	0	40.64920566233201	-10.08364622051834	0	57.66587437263868	1.006459373843964	-5.022418324978653	0	0	40.64920566233201	-10.08364622051834	0	57.66587437263868	1.006459373843964	-5.022418324978653	0	0	-4.698743569579318	-7.709315599124648	6.83217494410559	32.87216163240044	23.39550737913785	3.242859127014497	74.91582913374991	45.43084002239122	0	0	0	-10.36948103162376	0	74.91582913374991	45.43084002239122	0	0
13.16999999999976	-3.743300639046428	2.883544604363323	-107.3084381940534	0	0.9399999999999999	0	40.6515761224946	-10.08354310651197	0	57.66689704635952	1.006477222867567	-5.022389576805361	0	0	40.6515761224946	-10.08354310651197	0	57.66689704635952	1.006477222867567	-5.022389576805361	0	0	-4.698896715277226	-7.68658199650343	6.835938336747033	32.90789697479574	23.45991827856389	3.156038520720954	74.91587500783811	45.43035737864548	0	0	0	-10.37086770930319	0	74.91587500783811	45.43035737864548	0	0
13.17999999999976	-3.740146943693166	2.884224806634125	-107.3155648689872	0	0.9399999999999999	0	40.6545942929151	-10.08337973206313	0	57.66818149132972	1.006499640661357	-5.022337611699855	0	0	40.6545942929151	-10.08337973206313	0	57.66818149132972	1.006499640661357	-5.022337611699855	0	0	-4.681866400706509	-7.68194889903779	6.838310737738691	32.94113343608137	23.53128003292961	3.104778695115471	74.91593337410663	45.4296478238199	0	0	0	-10.37257553827268	0	74.91593337410663	45.4296478238199	0	0
13.18999999999976	-3.740344543363628	2.887066651231411	-107.3057981907274	0	0.9399999999999999	0	40.65760485053578	-10.08322463758329	0	57.66946897814331	1.006522111545331	-5.022289464561251	0	0	40.65760485053578	-10.08322463758329	0	57.66946897814331	1.006522111545331	-5.022289464561251	0	0	-4.653977905806713	-7.693744477832533	6.8340241859476	32.96905184921499	23.5950760468695	3.031163735541401	74.91599160379033	45.42896376222643	0	0	0	-10.37429482087251	0	74.91599160379033	45.42896376222643	0	0
13.19999999999976	-3.742402473399552	2.893307958006907	-107.3027662022879	0	0.9399999999999999	0	40.66225530421428	-10.08297093028448	0	57.67145168545206	1.006556716315972	-5.022208223891772	0	0	40.66225530421428	-10.08297093028448	0	57.67145168545206	1.006556716315972	-5.022208223891772	0	0	-4.63012638938085	-7.681803431600968	6.848672141158445	33.00121592635726	23.62062526323696	2.953712557363016	74.91608153414477	45.42786569280424	0	0	0	-10.37692636256412	0	74.91608153414477	45.42786569280424	0	0
13.20999999999976	-3.735413886215871	2.89277429093145	-107.300850654725	0	0.9399999999999999	0	40.66554189300533	-10.08281789456852	0	57.67286708814657	1.006581419753232	-5.022163390999643	0	0	40.66554189300533	-10.08281789456852	0	57.67286708814657	1.006581419753232	-5.022163390999643	0	0	-4.602624765453362	-7.685661757649803	6.849339264635631	33.03410104746428	23.65855029898514	2.847616027567351	74.91614512432345	45.42716745596778	0	0	0	-10.37883355747903	0	74.91614512432345	45.42716745596778	0	0
13.21999999999976	-3.728498587990393	2.892534261948032	-107.3063304014929	0	0.9399999999999999	0	40.6690176583468	-10.08264450462988	0	57.67435773064658	1.006607436372828	-5.022110420098759	0	0	40.6690176583468	-10.08264450462988	0	57.67435773064658	1.006607436372828	-5.022110420098759	0	0	-4.587961778211095	-7.688695743501235	6.857235099102244	33.08746663467404	23.65912394148107	2.79569953992939	74.91621235980058	45.42639496145237	0	0	0	-10.38083002456579	0	74.91621235980058	45.42639496145237	0	0
13.22999999999976	-3.72127786417159	2.889517417867239	-107.3069682192791	0	0.9399999999999999	0	40.67088253558249	-10.082560893764	0	57.67516090945957	1.006621454487597	-5.022086515848015	0	0	40.67088253558249	-10.082560893764	0	57.67516090945957	1.006621454487597	-5.022086515848015	0	0	-4.557036242992004	-7.698319422321689	6.876137038158823	33.1414715287547	23.71182281358243	2.707176833936913	74.91624844645099	45.42600834250829	0	0	0	-10.38191778621648	0	74.91624844645099	45.42600834250829	0	0
13.23999999999976	-3.710097209887005	2.889358955470334	-107.3127523711679	0	0.9399999999999999	0	40.67638600247867	-10.082266112512	0	57.6775106818849	1.006662465753091	-5.021992921908192	0	0	40.67638600247867	-10.082266112512	0	57.6775106818849	1.006662465753091	-5.021992921908192	0	0	-4.521878082085418	-7.69888439349513	6.85303986714654	33.13319845659091	23.7839221439103	2.673708113211664	74.91635487922839	45.42472539170465	0	0	0	-10.38504294609624	0	74.91635487922839	45.42472539170465	0	0
13.24999999999976	-3.70372608948096	2.885636603570625	-107.312721989907	0	0.9399999999999999	0	40.68204887949771	-10.08193997570345	0	57.67991685134481	1.006704461332528	-5.021885589708192	0	0	40.68204887949771	-10.08193997570345	0	57.67991685134481	1.006704461332528	-5.021885589708192	0	0	-4.52868240926772	-7.675858567157992	6.881676007970496	33.13026241848991	23.816946072022	2.66448162645018	74.91646436597448	45.42333813038334	0	0	0	-10.38821866826485	0	74.91646436597448	45.42333813038334	0	0
